<svg id="ICON" xmlns="http://www.w3.org/2000/svg" viewBox="0 0 512 512"><defs><style>.cls-1{fill:#c6c8ca}.cls-2{fill:#e4b790}.cls-3{fill:#cba383}.cls-4{fill:#2a3342}.cls-5{fill:#a8a9aa}.cls-10{fill:#b2b2b2}</style></defs><rect class="cls-1" x="268.45" y="377.31" width="149.67" height="54.17" rx="24.81" transform="rotate(115.07 343.28 404.39)"/><path class="cls-2" d="M419.66 335.07v6.67a16.87 16.87 0 0 1-16.89 16.88h-42.59a16.9 16.9 0 0 1-16.91-16.88v-6.67a16.9 16.9 0 0 1 16.91-16.88h42.59a16.87 16.87 0 0 1 16.89 16.88z"/><path class="cls-3" d="M419.66 335.07v3.33h-76.39v-3.33a16.9 16.9 0 0 1 16.91-16.88h42.59a16.87 16.87 0 0 1 16.89 16.88zM137.78 262.2h50.15v73.19h-50.15z"/><ellipse class="cls-3" cx="268.11" cy="214.49" rx="15.45" ry="16.54"/><ellipse class="cls-3" cx="63.16" cy="214.49" rx="15.45" ry="16.54"/><circle class="cls-2" cx="165.64" cy="209.88" r="99.48"/><circle class="cls-4" cx="205.43" cy="211.92" r="11.94"/><circle class="cls-4" cx="125.85" cy="211.92" r="11.94"/><ellipse class="cls-4" cx="85.72" cy="180.53" rx="25.72" ry="20.32" transform="rotate(-68.43 85.723 180.53)"/><ellipse class="cls-4" cx="248.89" cy="180.53" rx="20.32" ry="25.72" transform="rotate(-18.92 248.818 180.489)"/><path class="cls-4" d="M232.63 168c0 6.92-28.62 28-63.91 28s-63.9-21.08-63.9-28 28.61-12.53 63.9-12.53 63.91 5.61 63.91 12.53z"/><rect class="cls-5" x="371.91" y="205.85" width="19.45" height="19.6" rx="9.72"/><path class="cls-4" d="M482.47 303.37a15.19 15.19 0 0 1-15.17 15.17H296a15.19 15.19 0 0 1-15.18-15.17z"/><path d="M482.47 303.37a15.19 15.19 0 0 1-15.17 15.17h-8.85l7.55-15.17z" style="fill:#3f4d5f"/><path d="M319.74 318.54H296a15.19 15.19 0 0 1-15.18-15.17H309z" style="fill:#1d222a"/><path d="M466.35 303.21H296.92a77.72 77.72 0 0 1 77.76-77.76h13.91a77.74 77.74 0 0 1 77.76 77.76z" style="fill:#bbbec0"/><path d="M466.35 303.21h-52.88c-3.31-39.7-20.81-66.08-30.39-77.76h5.51a77.74 77.74 0 0 1 77.76 77.76z" style="fill:#cbcccd"/><path class="cls-5" d="M331.28 238.67a220.79 220.79 0 0 0-13 64.54h-21.36a77.71 77.71 0 0 1 34.36-64.54z"/><path class="cls-1" d="M70.18 110.41h194.93v56.09H70.18z"/><rect class="cls-1" x="29.53" y="26.32" width="272.22" height="86.12" rx="43.06"/><rect class="cls-10" x="88.03" y="103.77" width="14.22" height="40.29" rx="7.11"/><rect class="cls-10" x="123.28" y="103.77" width="14.22" height="40.29" rx="7.11"/><rect class="cls-10" x="158.53" y="103.77" width="14.22" height="40.29" rx="7.11"/><rect class="cls-10" x="193.77" y="103.77" width="14.22" height="40.29" rx="7.11"/><rect class="cls-10" x="229.02" y="103.77" width="14.22" height="40.29" rx="7.11"/><path class="cls-1" d="M124.12 335.39h77.48a60.74 60.74 0 0 1 60.74 60.74v87.63h-199v-87.64a60.74 60.74 0 0 1 60.78-60.73z"/><path class="cls-1" d="M125.85 318.18h75.29v27.48h-75.29z"/><rect class="cls-1" x="213.32" y="382.61" width="149.67" height="54.17" rx="24.81" transform="rotate(47.61 288.148 409.66)"/><rect class="cls-1" x="-5.58" y="385.8" width="145.49" height="54.17" rx="24.46" transform="rotate(91.2 67.158 412.896)"/><path class="cls-4" d="M125.85 318.18h8.17v165.57h-8.17z"/><circle class="cls-4" cx="154.04" cy="364.98" r="8.48"/><circle class="cls-4" cx="154.04" cy="413.69" r="8.48"/><circle class="cls-4" cx="154.04" cy="458.21" r="8.48"/></svg>