<svg xmlns="http://www.w3.org/2000/svg" viewBox="0 0 64 64"><g data-name="Chef Girl"><path d="M39 33.64v10.22L36 46v3l-4 2.46L28 49v-3l-3-2.14V33.65a8.985 8.985 0 0 0 13.36.71 8.669 8.669 0 0 0 .64-.72z" style="fill:#eac2b9"/><path d="M53.87 50.03 46 47l-3-7-4 2.86L36 45v3l-4 2.46L28 48v-3l-3-2.14L21 40l-3 7-7.87 3.03A7.994 7.994 0 0 0 5 57.49V63h54v-5.51a7.994 7.994 0 0 0-5.13-7.46z" style="fill:#d0dbf7"/><path d="M52.84 49.63 46 47l-3-7-.59-.59A4.829 4.829 0 0 0 39 38v-3.36A8.935 8.935 0 0 0 41 29v-8h2c3.28 1.99 5.74 5.17 5.96 8.83.25 4.29 2.24 5.03 3.81 6.91 3.86 4.63 2.93 8.96.07 12.89zM25 34.64V38a4.829 4.829 0 0 0-3.41 1.41L21 40l-3 7-6.84 2.63c-2.86-3.93-3.79-8.26.07-12.89 1.57-1.88 3.6-2.62 3.81-6.91.18-3.63 2.45-6.67 5.96-8.83h2v8a8.935 8.935 0 0 0 2 5.64z" style="fill:#494a59"/><path d="M45 28v2a2.006 2.006 0 0 1-2 2h-3.52a8.8 8.8 0 0 0 .52-3v-3h3a2.006 2.006 0 0 1 2 2zM24.52 32H21a2.006 2.006 0 0 1-2-2v-2a2.006 2.006 0 0 1 2-2h3v3a8.8 8.8 0 0 0 .52 3z" style="fill:#eac2b9"/><path d="M59 57.49V63H23v-4.76a4.01 4.01 0 0 1 1.9-3.41l7.1-4.37L36 48v-3l3-2.14L43 40l3 7 7.87 3.03A7.994 7.994 0 0 1 59 57.49z" style="fill:#e6ecff"/><path d="m43 40-4 2.86V38a4.829 4.829 0 0 1 3.41 1.41z" style="fill:#d0dbf7"/><path d="M25 38v4.86L21 40l.59-.59A4.829 4.829 0 0 1 25 38z" style="fill:#bbcaea"/><circle cx="26" cy="57" r="1" style="fill:#d0dbf7"/><circle cx="26" cy="60.5" r="1" style="fill:#d0dbf7"/><path d="M51.75 63h-1.5a9.112 9.112 0 0 0-1.54-5.08l-.33-.5a.718.718 0 0 1-.13-.42v-3a.75.75 0 0 1 1.5 0v2.77l.21.32A10.613 10.613 0 0 1 51.75 63z" style="fill:#d0dbf7"/><path d="M15.75 54v3a.718.718 0 0 1-.13.42l-.33.5A9.112 9.112 0 0 0 13.75 63h-1.5a10.613 10.613 0 0 1 1.79-5.91l.21-.32V54a.75.75 0 0 1 1.5 0z" style="fill:#bbcaea"/><path d="M46 7a5.993 5.993 0 0 0-10-4.463 5.973 5.973 0 0 0-8 0 5.995 5.995 0 1 0-7 9.654V18h22v-5.809A5.992 5.992 0 0 0 46 7z" style="fill:#e6ecff"/><path d="M28 2.54a6.122 6.122 0 0 0-1.62 2.34.75.75 0 0 1-1.4-.54 7.606 7.606 0 0 1 1.77-2.67 6.357 6.357 0 0 1 1.25.87zM38.59 5.31a.646.646 0 0 1-.27.05.753.753 0 0 1-.7-.48A6.122 6.122 0 0 0 36 2.54a6.357 6.357 0 0 1 1.25-.87 7.606 7.606 0 0 1 1.77 2.67.746.746 0 0 1-.43.97zM43 12.19v1.68a7.505 7.505 0 0 1-3 .63.75.75 0 0 1 0-1.5 5.974 5.974 0 0 0 3-.81zM24.75 13.75a.749.749 0 0 1-.75.75 7.505 7.505 0 0 1-3-.63v-1.68a5.974 5.974 0 0 0 3 .81.755.755 0 0 1 .75.75z" style="fill:#d0dbf7"/><path d="M23 20v9a9 9 0 0 0 9 9 9 9 0 0 0 9-9v-9z" style="fill:#ffddd4"/><rect x="18" y="17" width="28" height="4" rx=".75" ry=".75" style="fill:#d0dbf7"/></g></svg>