<svg xmlns="http://www.w3.org/2000/svg" xml:space="preserve" width="2048" height="2048" style="shape-rendering:geometricPrecision;text-rendering:geometricPrecision;image-rendering:optimizeQuality;fill-rule:evenodd;clip-rule:evenodd"><defs><clipPath id="id0"><path d="M1024-.001c565.541 0 1024 458.46 1024 1024s-458.461 1024-1024 1024c-565.541 0-1024-458.461-1024-1024 0-565.541 458.461-1024 1024-1024z"/></clipPath><style>.fil1{fill:#9ccc65}.fil10,.fil3,.fil5{fill:#263238;fill-rule:nonzero}.fil10,.fil3{fill:#37474f}.fil10{fill:#757575}.fil4,.fil7,.fil8{fill:#c23c13;fill-rule:nonzero}.fil4,.fil7{fill:#cf4317}.fil4{fill:#d84315}</style></defs><g id="Layer_x0020_1"><path d="M1024-.001c565.541 0 1024 458.46 1024 1024s-458.461 1024-1024 1024c-565.541 0-1024-458.461-1024-1024 0-565.541 458.461-1024 1024-1024z" style="fill:#c5e1a5"/><g style="clip-path:url(#id0)"><g id="_517160008"><path id="_2603032881" class="fil1" d="M1578.54 907.427 2714.42 2043.31l1.46 1.99L1580 909.42z"/><path id="_260303240" class="fil1" d="M1580 909.42 2715.88 2045.3l1.25 2.13 1.01 2.21.78 2.26.54 2.31.32 2.33.1 2.34-.12 2.32-.34 2.3-.56 2.26-.76 2.19-.98 2.12-1.17 2.03-1.38 1.91-1.57 1.79-1.77 1.64-1.96 1.48L1573.39 943.033l1.96-1.479 1.76-1.64 1.58-1.785 1.38-1.913 1.17-2.025.97-2.119.77-2.196.55-2.256.35-2.3.12-2.327-.1-2.336-.32-2.33-.54-2.305-.78-2.264-1.02-2.206z"/><path id="_260303360" class="fil1" d="M1414.9 804.72 2550.78 1940.6l1.34 1.8 1.17 1.92.98 2.04.79 2.14.57 2.23.35 2.32.12 2.38L1420.22 819.546l-.12-2.383-.35-2.314-.57-2.233-.79-2.143-.98-2.037-1.17-1.922z"/><path id="_260303912" class="fil1" d="M1008.17 480.768 2144.05 1616.65l.73 1.21.45 1.45.2 1.68-.03 1.89-.23 2.12-.41 2.33-.56 2.53-.69 2.74-.78 2.92-.85 3.12-.91 3.3-.92 3.47-.92 3.65-.88 3.81-.83 3.97-.75 4.12-.64 4.27-.51 4.41-.34 4.55-.16 4.68.05 4.8.3 4.91.55 5.03.84 5.14 1.16 5.24 1.51 5.33 1.86 5.42 2.27 5.5 2.68 5.58 3.12 5.65 3.6 5.72L1017.08 601.309l-3.6-5.716-3.13-5.653-2.68-5.58-2.26-5.504-1.87-5.42-1.5-5.331-1.16-5.237-.84-5.137-.555-5.03-.292-4.918-.053-4.8.158-4.677.345-4.547.507-4.411.64-4.27.74-4.122.83-3.968.89-3.812.92-3.645.92-3.474.9-3.299.86-3.116.78-2.928.68-2.733.56-2.535.41-2.328.24-2.116.03-1.899-.2-1.676-.45-1.447z"/><path id="_260303984" class="fil1" d="M938.015 552.903 2073.9 1688.79l.54.6.5.76.45.92.41 1.05.36 1.18.32 1.31.29 1.41.25 1.51.22 1.6.19 1.68.16 1.75.14 1.81.12 1.86.1 1.89.08 1.93.07 1.94.05 1.95.05 1.95.05 1.94.04 1.92.04 1.89.04 1.84.05 1.79.05 1.73.06 1.66.08 1.58.09 1.48.11 1.38.13 1.27.15 1.15.18 1.01L943.386 600.649l-.177-1.013-.152-1.147-.129-1.269-.109-1.382-.092-1.483-.075-1.576-.064-1.658-.053-1.73-.046-1.792-.043-1.844-.039-1.886-.04-1.918-.044-1.94-.049-1.95-.058-1.952-.069-1.944-.082-1.924-.099-1.897-.118-1.857-.139-1.808-.163-1.749-.19-1.681-.219-1.6-.251-1.512-.286-1.413-.323-1.302-.362-1.184-.405-1.053-.45-.914-.497-.765z"/><path id="_260304152" class="fil1" d="M948.261 610.264 2084.14 1746.15l1.75 2.18 1.65 2.13 1.56 2.09 1.45 2.06 1.36 2.04 1.26 2.01 1.16 2.01 1.08 2.01.98 2.01.89 2.03.81 2.05.71 2.08.63 2.12.54 2.17.46 2.21.37 2.28L964.924 643.751l-.376-2.28-.458-2.217-.542-2.165-.629-2.117-.714-2.081-.803-2.051-.892-2.028-.983-2.015-1.074-2.006-1.168-2.009-1.261-2.019-1.356-2.034-1.454-2.06-1.552-2.091-1.65-2.133z"/><path id="_260304200" class="fil1" d="m1303.77 1338.92 1135.88 1135.89h-.02l-.01.01h-.03l-.02.01h-.01L1303.68 1338.95l.01-.01h.04l.01-.01h.02z"/><path id="_260303888" class="fil1" d="m1303.68 1338.95 1135.88 1135.88v28.35L1303.68 1367.29z"/><path id="_260304032" class="fil1" d="m1303.68 1367.29 1135.88 1135.89-.12 2.38-.35 2.31-.57 2.24-.79 2.14-.98 2.04-1.17 1.92-1.34 1.79-1.5 1.66-1.66 1.5-1.79 1.34-1.92 1.17-2.04.98-2.14.79-2.24.57-2.31.35-2.38.13L1280.37 1390.6l2.39-.12 2.31-.35 2.23-.57 2.15-.79 2.03-.98 1.93-1.17 1.79-1.34 1.66-1.5 1.5-1.66 1.34-1.79 1.17-1.93.98-2.03.79-2.15.57-2.23.35-2.31z"/><path id="_260304392" class="fil1" d="m1280.37 1390.6 1135.89 1135.89h-10.6L1269.78 1390.6z"/><path id="_260304248" class="fil1" d="m1343.47 1440.25 1135.88 1135.89 1.02 1.08.94 1.14.86 1.18.78 1.23.7 1.28.62 1.31.53 1.34.45 1.37.36 1.39.28 1.41.19 1.43.1 1.43.02 1.45-1135.89-1135.89-.01-1.44-.1-1.44-.19-1.42-.28-1.42-.36-1.39-.45-1.37-.53-1.34-.62-1.31-.7-1.27-.78-1.23-.86-1.19-.94-1.13z"/><path id="_260304056" class="fil1" d="M964.924 643.751 2100.8 1779.63l.31 2.77.13 2.86-.03 2.93-.18 3-.33 3.05-.47 3.09-.6 3.1-.73 3.13-.84 3.12-.94 3.1-1.05 3.08-1.14 3.04-1.22 2.98-1.29 2.92-1.36 2.84-1.42 2.75-1.47 2.64-1.52 2.52-1.55 2.4-1.58 2.25-1.59 2.09-1.61 1.92-1.61 1.74-1.6 1.55-1.59 1.33-1.57 1.12-1.55.87-1.5.63-1.46.38-1.41.09-1.34-.19-1.28-.49L929.529 712.362l1.277.489 1.346.189 1.406-.097 1.46-.37 1.505-.631 1.541-.879 1.571-1.114 1.591-1.334 1.605-1.545 1.61-1.74 1.606-1.922 1.596-2.093 1.577-2.248 1.549-2.394 1.516-2.524 1.471-2.643 1.421-2.747 1.361-2.839 1.295-2.919 1.219-2.984 1.137-3.039 1.046-3.078.946-3.105.84-3.121.724-3.122.602-3.109.47-3.085.331-3.049.184-2.997.03-2.934-.134-2.859z"/><path id="_260304272" class="fil1" d="M744.211 1338.92 1880.09 2474.81l-9.95-2.44-9.77-2.53-9.6-2.65-9.4-2.8-9.21-2.98-8.99-3.19-8.78-3.44-8.55-3.71-8.32-4.01-8.06-4.35-7.81-4.71-7.54-5.11-7.27-5.54-6.98-5.99L623.976 1285.48l6.982 5.99 7.268 5.54 7.543 5.11 7.809 4.71 8.065 4.35 8.313 4.01 8.55 3.71 8.778 3.43 8.998 3.2 9.205 2.98 9.405 2.8 9.596 2.65 9.776 2.52z"/><path id="_260303864" class="fil1" d="M487.907 1568.45 1623.79 2704.33l-2.79-.32-2.6-.93-2.43-1.5L480.091 1565.7l2.426 1.5 2.605.93z"/><path id="_260304704" class="fil1" d="M767.608 1390.6 1903.49 2526.49l-2.38-.13-2.32-.35-2.23-.57-2.14-.79-2.04-.98-1.92-1.17-1.8-1.34L752.782 1385.28l1.794 1.34 1.922 1.17 2.037.98 2.143.79 2.233.57 2.314.35z"/><path id="_260304728" class="fil1" d="M744.299 1338.95 1880.18 2474.83h-.01l-.01-.01h-.03l-.02-.01h-.02L744.211 1338.92l.01.01h.023l.011.01h.034z"/><path id="_260305016" class="fil1" d="M778.219 1390.6 1914.1 2526.49h-10.61L767.608 1390.6z"/><path id="_260305088" class="fil1" d="M558.221 995.559 1694.1 2131.44l-1.57-.12-1.56-.24-1.56-.34-1.53-.44-1.52-.56-1.49-.67-1.46-.78-1.43-.9L546.103 991.511l1.423.894 1.46.781 1.492.67 1.518.557 1.537.449 1.555.34 1.564.232z"/><path id="_260305328" class="fil1" d="M546.103 991.511 1681.98 2127.39l-71.49-48.47L474.613 943.033z"/><path id="_260304872" class="fil1" d="M474.613 943.033 1610.49 2078.92l-1.95-1.48L472.654 941.554z"/><path id="_260305352" class="fil1" d="M943.386 600.649 2079.27 1736.53l.32 1.33.42 1.29.52 1.26.59 1.23.67 1.18.73 1.15.79 1.11.83 1.07L948.261 610.264l-.833-1.065-.787-1.109-.731-1.148-.668-1.187-.594-1.225-.514-1.26-.423-1.295z"/><path id="_260305304" class="fil1" d="M1100.49 504.496 2236.37 1640.38l.55 1.1.25 1.34-.04 1.55-.29 1.77-.51 1.97-.72 2.17-.88 2.36-1.03 2.55-1.16 2.72-1.24 2.9-1.32 3.05-1.35 3.21-1.36 3.36-1.36 3.5-1.31 3.63-1.25 3.75-1.15 3.88-1.03 3.99-.88 4.09-.72 4.19-.51 4.27-.29 4.36-.03 4.44.25 4.5.55 4.57.89 4.61 1.24 4.66 1.64 4.7 2.04 4.74 2.49 4.75 2.95 4.78L1094.91 611.956l-2.96-4.774-2.48-4.757-2.04-4.732-1.64-4.701-1.24-4.662-.89-4.617-.55-4.563-.25-4.503.03-4.435.29-4.36.51-4.278.71-4.188.89-4.09 1.03-3.987 1.15-3.877 1.25-3.757 1.31-3.63 1.35-3.499 1.37-3.357 1.35-3.21 1.32-3.054 1.24-2.894 1.15-2.722 1.04-2.547.88-2.362.72-2.172.51-1.972.29-1.767.03-1.554-.24-1.333z"/><path id="_260304632" class="fil1" d="M1420.22 847.423 2556.1 1983.31v.36L1420.22 847.786z"/><path id="_260304776" class="fil1" d="M1420.22 819.546 2556.1 1955.43v27.88L1420.22 847.423z"/><path id="_260305400" class="fil1" d="M1457.75 877.377 2593.63 2013.26l2.31 2.75 2.2 2.81 2.09 2.86 1.99 2.92 1.88 2.97 1.77 3.03 1.68 3.09 1.59 3.16 1.49 3.21 1.4 3.28 1.31 3.35 1.23 3.41 1.15 3.48 1.07 3.56.99 3.62.92 3.7.85 3.78.78 3.85.72 3.93.65 4.01L1485.82 944.148l-.65-4.011-.72-3.931-.78-3.853-.85-3.774-.92-3.7-.99-3.626-1.07-3.553-1.15-3.482-1.23-3.414-1.31-3.346-1.4-3.279-1.49-3.216-1.59-3.151-1.68-3.091-1.78-3.031-1.88-2.972-1.98-2.917-2.09-2.861-2.2-2.808z"/><path id="_260305424" class="fil1" d="M1501.9 991.511 2637.78 2127.39l-1.43.9-1.46.78-1.49.67-1.52.56-1.54.45-1.56.34-1.57.23-1.57.12L1489.76 995.559l1.57-.124 1.57-.231 1.56-.339 1.54-.448 1.52-.559 1.49-.669 1.46-.782z"/><path id="_260305544" class="fil1" d="M1017.08 601.309 2152.96 1737.19l.92 1.39.9 1.42.89 1.43.88 1.44.87 1.47.84 1.49.83 1.5.82 1.52.8 1.54.78 1.56.76 1.57.74 1.6.72 1.61.7 1.63.68 1.65.66 1.67.64 1.68.61 1.71.59 1.72.56 1.74.54 1.75.52 1.78.48 1.79.46 1.81.44 1.83.4 1.85.38 1.86.34 1.89.32 1.9.28 1.91.26 1.94.22 1.95L1036.91 654.91l-.22-1.954-.26-1.934-.28-1.918-.32-1.901-.34-1.881-.38-1.865-.4-1.846-.44-1.83-.46-1.81-.49-1.793-.51-1.776-.54-1.757-.56-1.739-.59-1.72-.61-1.705-.64-1.684-.66-1.668-.68-1.649-.7-1.631-.72-1.612-.74-1.594-.76-1.577-.78-1.558-.8-1.54-.82-1.521-.83-1.504-.85-1.485-.86-1.467-.88-1.448-.89-1.43-.9-1.411z"/><path id="_260305640" class="fil1" d="M1573.39 943.033 2709.27 2078.92l-71.49 48.47L1501.9 991.511z"/><path id="_260306096" class="fil1" d="M929.529 712.362 2065.41 1848.24l-.55-.27L928.984 712.09z"/><path id="_260306000" class="fil1" d="m1036.91 654.91 1135.88 1135.88.14 2.32-.04 2.52-.21 2.69-.36 2.84-.51 2.99-.65 3.1-.78 3.21-.9 3.29-1 3.36-1.11 3.4-1.19 3.43-1.27 3.45-1.33 3.43-1.4 3.41-1.44 3.36-1.48 3.3-1.52 3.22-1.52 3.11-1.54 3-1.54 2.86-1.52 2.71-1.51 2.53-1.47 2.34-1.43 2.13-1.38 1.9-1.31 1.65-1.25 1.39-1.17 1.1-1.07.8-.97.49-.86.14-.75-.22L1002.57 734.158l.74.217.87-.142.97-.481 1.07-.801 1.17-1.103 1.24-1.388 1.32-1.653 1.38-1.901 1.43-2.129 1.47-2.34 1.51-2.532 1.52-2.706 1.54-2.861 1.53-2.998 1.53-3.116 1.51-3.218 1.49-3.298 1.44-3.362 1.4-3.407 1.33-3.434 1.27-3.443 1.19-3.431 1.1-3.404 1.01-3.356.9-3.292.77-3.208.65-3.105.52-2.986.36-2.846.21-2.69.04-2.514z"/><path id="_260306120" class="fil1" d="M1094.91 611.956 2230.79 1747.84l3.23 5.21 2.74 5.19 2.28 5.16 1.84 5.12 1.42 5.08 1.04 5.01.67 4.95.32 4.87.01 4.77-.28 4.68-.56 4.57-.79 4.44-1.02 4.32-1.21 4.17-1.39 4.02-1.53 3.86-1.65 3.69-1.75 3.51-1.82 3.31-1.87 3.11-1.9 2.89-1.89 2.67-1.87 2.44-1.83 2.19-1.75 1.94-1.65 1.67-1.53 1.4-1.38 1.12-1.21.81-1.02.51-.8.2-.55-.14L1077.21 718.7l.55.134.8-.194 1.01-.51 1.22-.816 1.38-1.113 1.53-1.398 1.65-1.673 1.75-1.938 1.83-2.193 1.87-2.438 1.89-2.671 1.9-2.896 1.87-3.108 1.82-3.312 1.75-3.505 1.65-3.688 1.53-3.859 1.39-4.023 1.21-4.172 1.01-4.315.8-4.446.55-4.567.29-4.677-.01-4.778-.32-4.867-.67-4.947-1.04-5.016-1.42-5.075-1.84-5.124-2.28-5.161-2.74-5.191z"/><path id="_260305784" class="fil1" d="M1489.76 995.559 2625.64 2131.44l.05 1.92.05 1.93.04 1.94.03 1.96.04 1.97.03 1.99.02 2 .03 2.02.02 2.03.02 2.04.01 2.06.02 2.08.01 2.09.01 2.11.01 2.12.01 2.13v4.32l.01 2.19v11.15l-.01 2.27v9.28l-.01 2.36v4.77L1490.15 1064.29V1057.16l.01-2.35V1045.6l.01-2.26v-8.89l-.01-2.18v-4.32l-.01-2.14-.01-2.12-.01-2.1-.01-2.09-.02-2.08-.01-2.06-.02-2.05-.02-2.03-.03-2.01-.03-2.01-.03-1.98-.03-1.97-.04-1.96-.04-1.946-.04-1.929z"/><path id="_260305568" class="fil1" d="m1490.15 1064.29 1135.88 1135.88-.23 19.48-.69 18.48-1.13 17.5-1.57 16.54-2 15.63-2.41 14.74-2.82 13.89-3.23 13.05-3.61 12.26-3.99 11.5-4.36 10.76-4.72 10.06-5.08 9.39-5.41 8.74-5.75 8.13-6.07 7.55-6.38 7.01-6.69 6.48-6.98 5.99-7.27 5.54-7.54 5.11-7.81 4.71-8.07 4.35-8.31 4.01-8.55 3.71-8.78 3.44-9 3.19-9.2 2.98-9.41 2.8-9.59 2.65-9.78 2.53-9.95 2.44-1135.88-1135.89 9.95-2.44 9.77-2.52 9.6-2.65 9.41-2.8 9.2-2.98 9-3.2 8.78-3.43 8.55-3.71 8.31-4.01 8.06-4.35 7.81-4.71 7.55-5.11 7.27-5.54 6.98-5.99 6.69-6.49 6.38-7 6.07-7.55 5.75-8.13 5.41-8.75 5.08-9.38 4.72-10.06 4.36-10.76 3.99-11.5 3.61-12.26 3.23-13.06 2.82-13.88 2.41-14.74 2-15.63 1.57-16.55 1.13-17.49.69-18.48z"/><path id="_260305832" class="fil1" d="m1570.15 1462.07 1135.89 1135.88 2.06 2.52 1.89 2.96 1.7 3.38 1.53 3.73 1.35 4.07 1.17 4.35.98 4.59.81 4.8.63 4.96.45 5.08.27 5.16.09 5.2-.09 5.21-.27 5.16-.45 5.08-.63 4.96-.81 4.8-.98 4.59-1.17 4.35-1.35 4.06-1.53 3.74-1.7 3.37-1.89 2.97-2.06 2.51-2.25 2.03-2.43 1.5-2.6.93-2.79.32-1135.88-1135.88 2.79-.32 2.6-.93 2.43-1.5 2.24-2.03 2.07-2.52 1.89-2.96 1.7-3.37 1.53-3.74 1.35-4.07 1.16-4.34.99-4.6.81-4.79.63-4.96.45-5.08.27-5.17.09-5.2-.09-5.2-.27-5.17-.45-5.08-.63-4.96-.81-4.79-.99-4.6-1.16-4.35-1.35-4.06-1.53-3.74-1.7-3.37-1.89-2.96z"/><path id="_260305496" class="fil1" d="m1560.09 1568.45 1135.88 1135.88H1623.79L487.907 1568.45z"/><path id="_517159744" class="fil1" d="m1485.82 944.148 61.128-41.45c10.95-7.425 25.746-4.416 33.045 6.722 7.3 11.139 4.34 26.189-6.61 33.613l-71.49 48.478a23.446 23.446 0 0 1-12.134 4.048c.53 20.355.389 43.113.389 68.726 0 213.36-79.397 248.977-186.38 274.64l-.088.023v28.346c0 12.873-10.436 23.31-23.31 23.31h-10.591l.231.151 69.925 46.616c6.888 4.592 10.544 12.216 10.376 19.923h209.78c30.66 0 30.66 111.152 0 111.152H487.9c-30.661 0-30.661-111.152 0-111.152h209.78c-.169-7.707 3.486-15.33 10.375-19.923l69.925-46.616.232-.152h-10.611c-12.873 0-23.31-10.436-23.31-23.309v-28.346l-.088-.023c-106.982-25.663-186.378-61.28-186.378-274.64 0-25.615-.14-48.37.388-68.726a23.455 23.455 0 0 1-12.118-4.048l-71.49-48.478c-10.95-7.424-13.908-22.474-6.609-33.613 7.3-11.138 22.095-14.147 33.045-6.723l61.113 41.44c6.66-43.213 23.444-72.466 65.597-96.35v-28.241c0-12.872 10.436-23.309 23.309-23.309h745.847c12.873 0 23.31 10.436 23.31 23.31V847.786c42.155 23.885 58.94 53.142 65.599 96.361zm-386.218-440.522c11.297 8.01-38.758 57.347-4.698 108.33 37.155 55.609-13.184 109.945-17.7 106.745-3.3-1.956 5.42-42.7 3.537-60.725-.89-8.525-4.348-16.252-8.766-22.867-12.676-18.973-19.175-33.256-19.951-50.221-1.294-28.215 38.037-84.4 47.578-81.261zm-92.47-23.829c12.77 9.052-31.017 60.202 9.942 121.512 9.862 14.76 17.644 32.673 19.83 53.601 2.471 23.648-27.116 83.526-34.333 79.249-4.953-3.51 7.467-49.965 4.885-74.676-1.379-13.207-6.621-25.008-13.311-35.022-16.682-24.97-25.226-43.568-26.218-65.207-.892-19.478 26.976-84.15 39.205-79.457zm-58.874 130.467c9.61 11.772 14.88 21.155 16.663 33.487 4.191 29.009-22.174 75.469-35.394 68.611-6.415-1.2 6.67-58.435 6.14-62.099-.409-2.83-2.924-6.584-7.768-12.517-5.915-7.245-10.944-16.467-13.27-27.946-3.407-16.815 16.656-58.481 22.781-57.332 6.7 3.69 3.934 38.11 5.973 48.18.725 3.58 2.6 6.831 4.875 9.616z"/></g></g><path d="M1024-.001c565.541 0 1024 458.46 1024 1024s-458.461 1024-1024 1024c-565.541 0-1024-458.461-1024-1024 0-565.541 458.461-1024 1024-1024z" style="fill:none"/><path class="fil3" d="M1270.01 1390.76c-10.711-7.14-25.183-4.246-32.322 6.465-7.14 10.71-4.246 25.183 6.464 32.322l69.926 46.616c10.71 7.14 25.182 4.246 32.322-6.465 7.14-10.71 4.245-25.182-6.465-32.322l-69.925-46.616zM803.845 1429.54c10.711-7.14 13.605-21.612 6.465-32.322-7.14-10.712-21.611-13.605-32.322-6.465l-69.925 46.615c-10.711 7.14-13.605 21.612-6.465 32.322 7.14 10.712 21.612 13.606 32.322 6.466l69.925-46.616zM1047.28 1402.14c0-12.822-10.395-23.218-23.218-23.218s-23.218 10.396-23.218 23.218l-.12 66.715c0 12.823 10.394 23.218 23.216 23.218 12.823 0 23.218-10.395 23.218-23.218l.122-66.715z"/><path class="fil4" d="M1023.99 1390.6h256.382c12.873 0 23.31-10.436 23.31-23.31v-28.346c107.027-25.665 186.467-61.242 186.467-274.662 0-117.834 2.967-175.197-69.927-216.499v-28.24c0-12.873-10.436-23.309-23.31-23.309H651.067c-12.873 0-23.31 10.436-23.31 23.31v28.24c-72.893 41.301-69.925 98.664-69.925 216.498 0 213.42 79.44 248.997 186.467 274.662v28.347c0 12.873 10.436 23.309 23.309 23.309h256.383z"/><path class="fil5" d="M501.049 902.697c-10.95-7.424-25.746-4.415-33.045 6.723-7.3 11.139-4.34 26.188 6.61 33.613l71.49 48.478c10.95 7.425 25.745 4.415 33.044-6.724 7.3-11.138 4.34-26.188-6.61-33.613l-71.489-48.477zM1573.39 943.033c10.95-7.424 13.909-22.474 6.61-33.613-7.3-11.138-22.095-14.147-33.045-6.723l-71.49 48.477c-10.95 7.425-13.909 22.476-6.61 33.613 7.3 11.14 22.095 14.149 33.045 6.724l71.49-48.478z"/><path d="M1023.99 1390.6H767.607c-12.873 0-23.31-10.436-23.31-23.31v-28.346c-107.026-25.665-186.466-61.242-186.466-274.662 0-117.834-2.968-175.197 69.926-216.499v-28.24c0-12.873 10.436-23.309 23.309-23.309h372.924V1390.6z" style="fill:#e64a19;fill-rule:nonzero"/><path class="fil4" d="M1023.99 1390.6h256.382c12.873 0 23.31-10.436 23.31-23.31v-28.346c107.027-25.665 186.467-61.242 186.467-274.662 0-117.834 2.967-175.197-69.927-216.499v-28.24c0-12.873-10.436-23.309-23.31-23.309H1023.99V1390.6z"/><path class="fil7" d="M627.759 847.423v-27.876c0-12.873 10.436-23.31 23.31-23.31h372.923v51.186H627.76z"/><path class="fil8" d="M1420.22 847.423v-27.876c0-12.873-10.436-23.31-23.31-23.31h-372.922v51.186h396.232z"/><path class="fil7" d="M1023.99 1390.6H767.607c-12.873 0-23.31-10.436-23.31-23.31v-28.346l-.088-.022h279.781v51.678z"/><path class="fil8" d="M1023.99 1390.6h256.382c12.873 0 23.31-10.436 23.31-23.31v-28.346l.088-.022h-279.78v51.678z"/><path d="M487.907 1457.29c-30.66 0-30.66 111.152 0 111.152h1072.19c30.66 0 30.66-111.152 0-111.152H487.907z" style="fill:#455a64;fill-rule:nonzero"/><path class="fil10" d="M1007.14 479.797c-12.228-4.694-40.097 59.979-39.206 79.456.991 21.638 9.537 40.238 26.219 65.208 6.69 10.013 11.932 21.815 13.312 35.022 2.58 24.711-9.839 71.164-4.886 74.675 7.217 4.278 36.804-55.6 34.333-79.248-2.186-20.928-9.968-38.84-19.83-53.602-40.959-61.309 2.827-112.46-9.942-121.511zM1099.6 503.626c-9.541-3.14-48.872 53.046-47.578 81.261.776 16.965 7.275 31.248 19.95 50.222 4.42 6.614 7.876 14.34 8.767 22.866 1.881 18.026-6.836 58.77-3.536 60.725 4.515 3.201 54.854-51.137 17.699-106.745-34.06-50.983 15.995-100.32 4.698-108.33zM929.529 712.364c13.22 6.856 39.586-39.604 35.394-68.614-1.782-12.33-7.053-21.714-16.664-33.485-2.274-2.785-4.148-6.036-4.873-9.616-2.041-10.071.726-44.49-5.973-48.18-6.125-1.15-26.189 40.517-22.781 57.332 2.325 11.48 7.354 20.7 13.27 27.946 4.843 5.932 7.36 9.687 7.769 12.516.529 3.665-12.557 60.9-6.142 62.101z"/></g></svg>