<svg xmlns="http://www.w3.org/2000/svg" xmlns:xlink="http://www.w3.org/1999/xlink" version="1.1" width="256" height="256" viewBox="0 0 256 256" xml:space="preserve">
<g style="stroke: none; stroke-width: 0; stroke-dasharray: none; stroke-linecap: butt; stroke-linejoin: miter; stroke-miterlimit: 10; fill: none; fill-rule: nonzero; opacity: 1;" transform="translate(1.4065934065934016 1.4065934065934016) scale(2.81 2.81)">
	<path d="M 71.477 87.904 c 0 1.156 -0.94 2.096 -2.096 2.096 H 20.618 c -1.156 0 -2.095 -0.94 -2.095 -2.096 v -8.508 h 52.955 V 87.904 z" style="stroke: none; stroke-width: 1; stroke-dasharray: none; stroke-linecap: butt; stroke-linejoin: miter; stroke-miterlimit: 10; fill: rgb(0,0,0); fill-rule: nonzero; opacity: 1;" transform=" matrix(1 0 0 1 0 0) " stroke-linecap="round"/>
	<path d="M 73.024 44.943 c -0.966 0.642 -1.547 1.725 -1.547 2.884 v 26.646 H 18.523 V 47.827 c 0 -1.159 -0.581 -2.243 -1.548 -2.884 c -5.253 -3.486 -8.39 -9.321 -8.39 -15.606 c 0 -9.913 7.76 -18.111 17.667 -18.663 c 1.138 -0.063 2.171 -0.683 2.764 -1.656 C 32.453 3.371 38.428 0 45 0 c 6.57 0 12.546 3.371 15.984 9.018 c 0.593 0.974 1.626 1.593 2.764 1.656 c 9.907 0.552 17.667 8.75 17.667 18.663 C 81.415 35.622 78.278 41.456 73.024 44.943 z" style="stroke: none; stroke-width: 1; stroke-dasharray: none; stroke-linecap: butt; stroke-linejoin: miter; stroke-miterlimit: 10; fill: rgb(0,0,0); fill-rule: nonzero; opacity: 1;" transform=" matrix(1 0 0 1 0 0) " stroke-linecap="round"/>
</g>
</svg>